<svg width="37" height="37" viewBox="0 0 37 37" fill="none" xmlns="http://www.w3.org/2000/svg">
<path d="M18.5004 1.84985C9.30601 1.84985 1.85034 9.30422 1.85034 18.4999C1.85034 25.8565 6.62108 32.0976 13.2367 34.2992C14.0688 34.4533 14.3744 33.938 14.3744 33.4982C14.3744 33.1013 14.3588 31.7895 14.3518 30.3983C9.71957 31.4055 8.74215 28.4338 8.74215 28.4338C7.98477 26.5093 6.89348 25.9976 6.89348 25.9976C5.38289 24.9642 7.00735 24.9854 7.00735 24.9854C8.67934 25.1029 9.55974 26.7012 9.55974 26.7012C11.0447 29.2467 13.4548 28.5107 14.4049 28.0854C14.5543 27.0091 14.9859 26.2747 15.462 25.859C11.7639 25.4378 7.87612 24.0102 7.87612 17.6304C7.87612 15.8126 8.52656 14.3272 9.59173 13.1613C9.41884 12.7418 8.84897 11.0484 9.753 8.75498C9.753 8.75498 11.1512 8.30747 14.333 10.4617C15.661 10.0927 17.0854 9.90778 18.5004 9.90151C19.9154 9.90778 21.3409 10.0927 22.6715 10.4617C25.8495 8.30747 27.2457 8.75498 27.2457 8.75498C28.152 11.0484 27.5818 12.7418 27.409 13.1613C28.4765 14.3272 29.1225 15.8125 29.1225 17.6304C29.1225 24.0253 25.2274 25.4335 21.5199 25.8456C22.1171 26.3624 22.6492 27.3757 22.6492 28.929C22.6492 31.1567 22.6299 32.9498 22.6299 33.4982C22.6299 33.9413 22.9295 34.4605 23.7736 34.297C30.3856 32.0929 35.1503 25.854 35.1503 18.4999C35.1503 9.30422 27.6957 1.84985 18.5004 1.84985Z" fill="#5C5C5C"/>
<path d="M8.08633 25.5682C8.04977 25.6509 7.91944 25.6757 7.80101 25.619C7.68022 25.5647 7.61231 25.4519 7.65149 25.3688C7.6874 25.2837 7.81772 25.2599 7.93825 25.3171C8.0593 25.3713 8.12825 25.4852 8.08633 25.5682V25.5682ZM8.90535 26.299C8.82596 26.3726 8.67069 26.3384 8.56531 26.2221C8.4564 26.106 8.43603 25.9508 8.5166 25.876C8.59848 25.8025 8.74904 25.8368 8.85821 25.9531C8.96712 26.0705 8.98827 26.2247 8.90522 26.2991L8.90535 26.299ZM9.46725 27.234C9.36514 27.3049 9.19825 27.2384 9.09522 27.0903C8.99323 26.9424 8.99323 26.7648 9.09744 26.6936C9.20086 26.6224 9.36514 26.6864 9.4696 26.8333C9.57146 26.9839 9.57146 27.1615 9.46712 27.2341L9.46725 27.234ZM10.4174 28.3169C10.3261 28.4174 10.1318 28.3905 9.98946 28.2532C9.84399 28.1189 9.80338 27.9284 9.89491 27.8277C9.98724 27.7269 10.1827 27.7552 10.3261 27.8914C10.4707 28.0254 10.5148 28.2174 10.4175 28.3169H10.4174ZM11.6454 28.6825C11.6053 28.8128 11.418 28.8721 11.2295 28.8168C11.0412 28.7597 10.9179 28.6069 10.9559 28.4752C10.9951 28.3439 11.1831 28.2821 11.3731 28.3414C11.5612 28.3982 11.6847 28.5498 11.6455 28.6825H11.6454ZM13.0432 28.8375C13.0479 28.9749 12.8879 29.0888 12.6899 29.0912C12.4908 29.0956 12.3298 28.9844 12.3277 28.8494C12.3277 28.7107 12.484 28.5979 12.683 28.5946C12.881 28.5907 13.0432 28.7011 13.0432 28.8375V28.8375ZM14.4161 28.7849C14.4399 28.9189 14.3022 29.0565 14.1057 29.0931C13.9125 29.1283 13.7336 29.0457 13.7089 28.9129C13.6848 28.7755 13.8251 28.638 14.018 28.6023C14.2149 28.5681 14.391 28.6487 14.4161 28.7849" fill="#5C5C5C"/>
</svg>
