<svg width="36" height="37" viewBox="0 0 36 37" fill="none" xmlns="http://www.w3.org/2000/svg">
<rect y="0.5" width="36" height="36" rx="8" fill="#5C5C5C"/>
<path d="M9 11.9198C9 11.3426 9.20271 10.8664 9.60811 10.4912C10.0135 10.1161 10.5405 9.92847 11.1892 9.92847C11.8263 9.92847 12.3417 10.1132 12.7355 10.4826C13.1409 10.8635 13.3436 11.3599 13.3436 11.9718C13.3436 12.5259 13.1467 12.9876 12.7529 13.357C12.3475 13.738 11.8147 13.9285 11.1544 13.9285H11.1371C10.5 13.9285 9.98456 13.738 9.59073 13.357C9.19691 12.9761 9 12.497 9 11.9198ZM9.22587 27.0713V15.5042H13.083V27.0713H9.22587ZM15.2201 27.0713H19.0772V20.6124C19.0772 20.2084 19.1236 19.8967 19.2162 19.6774C19.3784 19.2849 19.6245 18.953 19.9546 18.6817C20.2847 18.4104 20.6988 18.2748 21.1969 18.2748C22.4942 18.2748 23.1429 19.1464 23.1429 20.8895V27.0713H27V20.4393C27 18.7308 26.5946 17.435 25.7838 16.5518C24.973 15.6687 23.9015 15.2272 22.5695 15.2272C21.0753 15.2272 19.9112 15.8679 19.0772 17.1492V17.1839H19.0598L19.0772 17.1492V15.5042H15.2201C15.2432 15.8736 15.2548 17.0222 15.2548 18.9501C15.2548 20.878 15.2432 23.585 15.2201 27.0713Z" fill="#FFCC00"/>
</svg>
