<svg width="36" height="37" viewBox="0 0 36 37" fill="none" xmlns="http://www.w3.org/2000/svg">
<rect y="0.5" width="36" height="36" rx="8" fill="#5C5C5C"/>
<path d="M18.4388 25.4799L14.3766 25.404C13.0613 25.3775 11.7428 25.4304 10.4533 25.1563C8.49177 24.7468 8.35281 22.7389 8.20739 21.0546C8.00703 18.6868 8.0846 16.276 8.46271 13.9279C8.67616 12.6104 9.51619 11.8242 10.8153 11.7386C15.2006 11.4282 19.6151 11.465 23.9908 11.6098C24.4529 11.6231 24.9182 11.6957 25.3739 11.7783C27.6232 12.1812 27.678 14.4566 27.8238 16.3721C27.9692 18.3073 27.9078 20.2524 27.6299 22.1745C27.4069 23.7659 26.9803 25.1004 25.1799 25.2293C22.9242 25.3977 20.7202 25.5333 18.4581 25.4902C18.4582 25.4799 18.4452 25.4799 18.4388 25.4799ZM16.0506 21.4509C17.7505 20.4535 19.418 19.4727 21.1081 18.482C19.4051 17.4846 17.7408 16.5038 16.0506 15.5131V21.4509Z" fill="#FFCC00"/>
</svg>
